<?xml version="1.0" standalone="no"?>
<!DOCTYPE svg PUBLIC "-//W3C//DTD SVG 20010904//EN"
 "http://www.w3.org/TR/2001/REC-SVG-20010904/DTD/svg10.dtd">
<svg version="1.0" xmlns="http://www.w3.org/2000/svg"
 width="2268.000000pt" height="1401.000000pt" viewBox="0 0 2268.000000 1401.000000"
 preserveAspectRatio="xMidYMid meet">

<g transform="translate(0.000000,1401.000000) scale(0.100000,-0.100000)"
fill="#000000" stroke="none">
<path d="M225 13644 c-24 -37 -13 -40 14 -4 12 17 17 30 12 30 -5 0 -16 -12
-26 -26z"/>
<path d="M6104 12983 c-115 -136 -142 -178 -156 -244 -14 -69 -1 -117 53 -198
94 -142 295 -242 488 -244 95 -1 155 25 205 86 18 23 67 110 107 193 l74 152
-230 121 c-126 66 -280 147 -341 180 l-111 59 -89 -105z"/>
<path d="M20461 11899 c-498 -105 -861 -507 -888 -985 -7 -118 5 -182 51 -269
60 -115 237 -259 409 -332 45 -19 170 -59 277 -89 241 -68 290 -83 290 -93 0
-11 -327 -248 -434 -315 -117 -73 -398 -215 -536 -269 -63 -25 -160 -58 -215
-73 -90 -25 -117 -27 -275 -28 -140 -1 -189 3 -245 17 -107 29 -279 115 -380
192 -49 38 -107 75 -128 82 -57 20 -108 3 -171 -57 -53 -50 -65 -67 -259 -360
-143 -217 -230 -318 -344 -404 -316 -238 -694 -302 -981 -166 -141 67 -228
145 -320 288 -77 120 -96 175 -322 943 -168 571 -224 743 -317 979 -106 271
-359 770 -383 755 -19 -12 -159 -231 -189 -295 -46 -99 -65 -183 -57 -262 12
-128 42 -202 331 -819 96 -204 161 -380 235 -633 33 -113 87 -297 119 -409
149 -510 263 -740 471 -947 230 -231 510 -350 820 -350 379 0 678 173 934 542
158 228 278 336 420 380 59 18 85 20 195 15 107 -4 144 -10 251 -42 252 -75
263 -77 435 -79 134 -1 177 3 264 22 330 74 644 247 1076 593 76 61 242 197
369 303 506 421 737 592 1021 757 201 116 276 224 360 513 14 49 23 91 20 94
-3 3 -69 -25 -147 -63 -346 -164 -557 -236 -845 -286 -406 -70 -949 -2 -1217
151 -95 55 -196 137 -225 183 -74 121 60 229 341 273 140 22 461 15 593 -14
204 -44 292 -93 366 -200 63 -90 112 -139 164 -163 74 -34 70 -50 70 254 0
263 -1 274 -24 331 -30 76 -120 166 -222 223 -86 48 -254 107 -349 122 -105
17 -302 12 -409 -10z"/>
<path d="M6610 11754 c-145 -164 -212 -279 -232 -397 -14 -83 6 -156 69 -252
73 -110 159 -282 188 -375 32 -102 36 -237 10 -310 -51 -144 -188 -266 -490
-437 -168 -96 -442 -213 -533 -228 -64 -10 -124 10 -182 62 -28 25 -104 116
-171 204 -126 167 -190 229 -286 274 -203 97 -483 60 -614 -82 -76 -82 -100
-152 -155 -443 -49 -265 -49 -397 3 -512 31 -69 112 -150 180 -179 110 -47
164 -54 423 -53 135 1 267 6 295 12 91 19 145 -26 145 -123 0 -109 -159 -320
-389 -518 -409 -351 -891 -632 -1706 -992 -121 -53 -233 -109 -249 -124 -27
-25 -72 -108 -64 -117 3 -2 150 25 329 61 178 36 430 83 559 105 589 99 802
165 1082 336 367 223 599 516 692 875 27 106 46 242 46 339 1 131 36 209 114
255 24 14 97 44 162 66 601 205 980 603 1188 1246 48 151 66 261 66 415 0 215
-47 394 -161 620 -54 106 -207 349 -227 362 -5 3 -46 -38 -92 -90z"/>
<path d="M10812 11363 c-39 -39 -81 -98 -130 -183 -39 -69 -82 -137 -94 -152
l-23 -27 -158 69 c-97 41 -192 91 -245 127 -99 67 -131 83 -171 83 -33 0 -82
-45 -118 -109 -14 -25 -48 -81 -76 -123 -27 -43 -55 -94 -63 -115 -26 -74 -21
-85 69 -160 126 -107 186 -149 262 -185 61 -29 80 -33 150 -33 70 0 87 4 133
30 58 32 202 176 267 268 22 31 44 57 48 57 5 0 49 -25 99 -56 195 -120 324
-174 420 -174 129 0 200 77 279 301 22 61 39 114 39 118 0 4 -44 25 -97 46
-134 53 -323 150 -426 218 -47 31 -90 57 -96 57 -6 0 -37 -26 -69 -57z"/>
<path d="M13504 10426 c-321 -85 -556 -352 -630 -717 -13 -63 -15 -116 -11
-228 5 -165 29 -267 91 -389 35 -68 50 -91 166 -246 l65 -88 52 58 c67 75 119
163 145 248 44 144 0 298 -127 446 -119 138 -123 213 -17 281 110 70 317 110
466 91 235 -31 479 -177 555 -335 49 -102 46 -222 -10 -335 -101 -207 -511
-500 -1051 -752 -159 -74 -755 -330 -873 -375 -109 -41 -184 -85 -246 -147
-60 -58 -74 -84 -41 -74 39 12 315 47 602 76 168 18 370 42 450 55 351 58 607
151 840 306 119 79 315 273 389 384 124 189 218 428 271 694 41 204 54 334 42
402 -43 228 -246 466 -496 579 -137 62 -228 82 -391 86 -134 4 -160 2 -241
-20z"/>
<path d="M10623 10205 c-43 -18 -113 -84 -175 -164 -120 -154 -158 -183 -300
-230 -248 -82 -380 -244 -498 -607 -52 -160 -57 -184 -40 -184 29 0 128 50
219 112 118 80 193 118 235 118 25 0 28 -3 22 -22 -33 -118 -49 -264 -50 -448
0 -185 1 -200 28 -285 52 -169 135 -291 261 -381 229 -163 523 -163 852 -2
210 104 407 305 521 534 109 217 169 520 160 798 -6 166 -32 262 -98 363 -169
257 -499 340 -969 242 -52 -10 -100 -19 -108 -19 -17 0 -17 29 2 73 20 48 19
80 -3 100 -22 20 -19 20 -59 2z m647 -695 c144 -41 232 -105 281 -205 29 -60
31 -71 27 -143 -6 -108 -43 -176 -157 -284 -98 -95 -165 -142 -283 -198 -135
-65 -220 -83 -383 -83 -120 -1 -149 2 -205 22 -176 61 -270 176 -286 349 -18
195 91 386 269 471 67 32 179 65 292 87 107 20 349 12 445 -16z"/>
<path d="M2739 10117 c-115 -32 -146 -89 -189 -341 -56 -332 -118 -560 -216
-793 -156 -373 -407 -705 -715 -945 -190 -148 -565 -384 -838 -528 -170 -90
-241 -138 -275 -187 -16 -24 -27 -45 -24 -48 6 -7 442 59 673 101 841 152
1300 481 1510 1084 48 139 97 344 145 610 22 124 43 238 46 254 6 27 8 28 47
22 57 -9 97 -37 137 -93 51 -74 111 -132 148 -144 18 -6 35 -9 38 -6 3 2 5 87
5 188 0 218 -21 364 -75 513 -40 113 -80 178 -142 236 -79 73 -183 102 -275
77z"/>
<path d="M18805 7707 c-35 -37 -92 -117 -136 -193 -43 -71 -86 -137 -97 -147
-19 -17 -22 -17 -82 3 -71 24 -198 87 -380 190 -68 38 -130 70 -136 70 -20 0
-104 -91 -154 -167 -26 -39 -64 -113 -84 -163 -43 -107 -49 -91 79 -199 173
-144 318 -222 412 -221 116 2 222 89 356 293 27 42 53 77 57 77 3 0 76 -38
161 -85 210 -116 294 -149 386 -149 65 -1 74 2 109 30 46 37 91 116 143 249
60 156 60 142 4 167 -258 112 -395 184 -503 264 -33 24 -63 44 -67 44 -4 0
-35 -28 -68 -63z"/>
<path d="M4575 5869 c-407 -24 -1096 -210 -1675 -454 -603 -254 -1264 -638
-1840 -1069 -370 -276 -643 -630 -642 -833 0 -111 61 -183 192 -224 97 -30
193 -35 286 -15 76 17 232 86 284 125 l25 20 -30 11 c-20 8 -66 10 -140 5
-103 -6 -112 -5 -138 15 -55 44 -23 107 132 260 588 579 1337 1103 2189 1529
664 332 1068 451 1530 451 246 0 355 -30 410 -110 21 -30 23 -43 19 -100 -6
-83 -38 -160 -128 -312 -216 -361 -597 -835 -1373 -1708 -597 -672 -825 -953
-1063 -1312 -108 -163 -136 -226 -136 -298 0 -62 17 -103 65 -151 102 -101
253 -95 495 22 79 38 112 68 127 116 10 31 -26 39 -83 18 -55 -19 -100 -19
-107 0 -14 36 53 123 230 299 695 690 1505 1300 2622 1972 148 89 335 196 415
238 134 69 354 166 378 166 6 0 -103 -136 -242 -302 -768 -917 -1030 -1316
-1197 -1816 -103 -308 -106 -512 -10 -707 132 -269 418 -400 924 -422 496 -21
1055 130 1634 440 74 40 142 80 153 90 22 21 28 93 7 84 -7 -3 -152 -61 -323
-130 -435 -176 -652 -245 -935 -298 -144 -27 -471 -37 -605 -20 -281 37 -414
101 -480 230 -62 122 -54 334 19 547 92 269 530 909 986 1439 351 409 918 966
1198 1178 134 100 250 147 370 147 39 0 62 4 62 11 0 31 -72 142 -130 200
-123 124 -283 167 -459 123 -94 -24 -307 -116 -596 -259 -470 -233 -831 -445
-1800 -1058 -110 -69 -247 -163 -305 -209 -285 -224 -415 -309 -539 -353 l-42
-15 53 64 c29 35 171 202 315 372 458 540 570 688 727 962 124 216 166 339
166 486 0 152 -43 259 -147 363 -67 68 -181 130 -288 157 -126 32 -360 47
-560 35z m2115 -1310 c0 -5 -7 -9 -15 -9 -9 0 -12 6 -9 15 6 15 24 11 24 -6z
m-2410 -1184 c-7 -9 -15 -13 -18 -10 -3 2 1 11 8 20 7 9 15 13 18 10 3 -2 -1
-11 -8 -20z"/>
<path d="M20570 5460 c-377 -21 -917 -106 -1244 -196 -184 -51 -453 -144 -634
-221 -186 -79 -506 -240 -687 -346 l-130 -76 -16 78 c-79 367 -335 595 -745
665 -228 39 -378 50 -669 50 -217 0 -327 -4 -435 -17 -435 -53 -854 -178
-1234 -369 -401 -201 -839 -524 -1152 -850 -115 -121 -167 -203 -189 -302 -21
-91 -13 -162 26 -244 46 -94 120 -143 270 -177 41 -9 82 -20 91 -23 14 -6 -2
-38 -103 -197 -195 -308 -268 -472 -290 -652 -28 -228 84 -455 283 -572 173
-101 492 -150 788 -122 613 60 1312 331 1901 737 359 248 768 620 1064 967 50
58 96 106 103 106 7 1 63 -15 124 -35 130 -42 199 -44 261 -5 l37 23 -74 69
c-169 158 -155 253 69 452 482 429 1097 738 1870 937 376 97 634 143 913 162
280 19 549 -9 785 -82 207 -65 371 -153 456 -246 101 -109 124 -244 62 -369
-61 -124 -201 -249 -472 -420 -458 -291 -1016 -497 -1652 -610 -139 -25 -430
-66 -433 -62 -1 2 365 355 589 566 398 376 691 598 1020 771 123 65 123 56 0
119 -210 106 -402 75 -679 -107 -275 -181 -567 -425 -950 -794 -239 -231 -291
-278 -302 -278 -6 0 -13 32 -17 70 -5 50 -11 70 -21 70 -35 0 -192 -87 -235
-131 -58 -57 -71 -108 -67 -259 3 -91 0 -109 -17 -137 -11 -18 -103 -139 -205
-270 -229 -295 -337 -454 -410 -604 -76 -158 -105 -245 -96 -292 13 -70 116
-146 198 -147 20 0 74 15 120 33 46 19 101 40 122 47 43 14 126 84 126 106 0
21 -50 28 -99 14 -76 -22 -129 -24 -156 -6 -14 9 -25 23 -25 30 0 18 101 158
191 266 58 70 207 237 459 513 l36 39 125 -144 c359 -411 809 -729 1269 -898
137 -50 372 -111 525 -136 166 -28 465 -26 602 4 252 55 484 173 646 328 52
50 56 64 9 40 -16 -8 -80 -28 -143 -45 -676 -175 -1411 -77 -1967 262 -142 87
-246 169 -373 296 -124 124 -200 220 -273 344 l-46 77 123 0 c644 1 1373 176
1967 474 387 194 691 444 789 649 148 310 16 613 -361 830 -310 178 -879 277
-1418 247z m-3545 -218 c269 -59 423 -196 470 -417 19 -89 19 -151 0 -257 -41
-238 -196 -542 -400 -788 -142 -171 -346 -360 -640 -596 -697 -560 -1386 -914
-2058 -1059 -280 -60 -444 -38 -557 75 -153 153 -127 352 85 655 280 399 620
756 983 1033 445 340 990 602 1524 734 122 30 133 31 198 20 88 -15 154 -45
259 -116 l84 -58 -6 69 c-13 133 -49 210 -127 265 -118 85 -424 110 -695 58
-132 -26 -385 -109 -550 -180 -567 -247 -1048 -569 -1472 -984 -79 -77 -154
-146 -166 -153 -32 -18 -62 -16 -107 7 -100 51 -123 149 -59 255 112 185 334
431 537 593 421 336 1083 667 1572 786 287 69 440 85 770 81 217 -3 281 -7
355 -23z"/>
<path d="M10175 5269 c-809 -74 -1455 -409 -1881 -974 -361 -481 -470 -959
-329 -1456 13 -47 45 -135 71 -195 25 -60 59 -145 75 -189 53 -142 94 -194
166 -210 66 -14 202 47 237 105 34 59 17 127 -69 264 -48 78 -104 232 -136
378 -29 134 -36 390 -15 523 62 378 266 673 678 985 332 252 699 408 1093 466
148 22 491 25 645 6 438 -56 924 -225 1238 -431 367 -242 590 -558 672 -954
22 -105 40 -311 39 -439 -1 -66 3 -96 17 -125 27 -55 60 -67 174 -63 52 2 110
3 128 3 17 0 32 1 32 1 1 1 5 60 10 131 16 240 -14 488 -86 705 -254 761
-1064 1324 -2094 1455 -150 19 -526 27 -665 14z"/>
<path d="M10275 4784 c-325 -34 -546 -99 -840 -246 -171 -86 -271 -146 -347
-210 -51 -42 -128 -140 -159 -200 l-19 -38 67 -44 c38 -25 89 -51 115 -57 70
-19 111 -2 225 93 434 361 905 472 1544 364 350 -60 630 -203 855 -438 197
-205 314 -459 330 -717 13 -186 -28 -367 -128 -569 -57 -115 -60 -125 -56
-180 3 -35 17 -83 36 -125 l31 -68 32 18 c56 32 197 173 243 241 127 193 187
404 187 657 0 255 -62 467 -198 675 -283 431 -800 736 -1403 825 -109 16 -429
28 -515 19z"/>
<path d="M10260 4280 c-418 -58 -726 -237 -928 -539 -123 -184 -172 -323 -172
-490 0 -196 74 -356 210 -456 l53 -39 28 32 c32 36 49 88 49 153 0 26 6 84 14
130 8 46 22 136 31 199 22 153 40 221 82 309 81 171 294 314 571 383 74 19
114 22 267 22 161 -1 190 -3 276 -26 238 -64 362 -142 553 -347 109 -118 206
-131 336 -45 40 27 42 30 38 69 -8 67 -36 111 -141 221 -210 220 -426 342
-715 405 -110 24 -436 35 -552 19z"/>
<path d="M10370 3278 c-450 -10 -461 -12 -513 -80 -16 -20 -50 -109 -87 -223
-34 -105 -183 -557 -332 -1005 -257 -774 -270 -817 -266 -876 2 -34 10 -69 17
-78 12 -15 130 -16 1320 -14 l1306 3 -4 45 c-1 25 -27 129 -57 232 -90 313
-160 516 -437 1263 -63 171 -143 391 -177 490 -68 193 -89 228 -149 245 -39
11 -34 11 -621 -2z"/>
<path d="M17653 1681 c-166 -57 -200 -186 -83 -318 29 -33 40 -55 40 -78 0
-39 -17 -55 -78 -76 -25 -8 -47 -20 -49 -25 -2 -5 11 -34 29 -64 39 -65 62
-72 137 -39 62 26 126 94 141 148 15 58 0 105 -60 186 -28 37 -50 78 -50 91 0
29 35 54 77 54 18 0 33 2 33 5 0 20 -61 135 -72 135 -7 -1 -36 -9 -65 -19z"/>
<path d="M13492 1673 c-26 -52 -214 -584 -208 -590 12 -12 133 -16 152 -5 10
6 23 25 30 44 l11 33 99 0 99 0 11 -34 c6 -19 20 -38 30 -42 27 -11 136 -10
153 0 16 11 -19 114 -147 438 l-67 168 -77 3 c-66 2 -78 0 -86 -15z m112 -272
c25 -86 23 -91 -29 -91 -28 0 -45 4 -45 12 0 25 44 148 51 141 4 -5 14 -32 23
-62z"/>
<path d="M14091 1673 c-64 -23 -133 -95 -161 -169 -32 -86 -26 -207 15 -283
36 -65 92 -115 153 -135 58 -20 164 -20 230 -1 42 13 60 13 97 4 27 -7 50 -8
54 -3 4 5 6 78 3 162 l-4 152 -90 0 -90 0 7 -79 7 -78 -32 -7 c-18 -3 -52 -6
-75 -6 -74 0 -125 59 -125 145 0 94 53 155 135 155 36 0 59 -10 117 -52 15
-10 22 -8 45 14 16 15 36 41 47 58 l18 31 -40 38 c-22 21 -62 46 -88 55 -59
20 -165 20 -223 -1z"/>
<path d="M14833 1678 l-63 -10 -2 -264 c-1 -145 -2 -276 -2 -291 -1 -28 -1
-28 78 -31 50 -2 82 1 86 8 4 6 5 79 2 163 -4 133 -2 150 10 137 8 -8 66 -82
127 -163 l113 -148 71 3 72 3 5 285 c3 157 3 291 1 298 -3 13 -39 15 -117 6
l-51 -6 5 -154 c3 -93 1 -154 -5 -154 -5 0 -56 64 -113 143 -108 148 -140 188
-149 186 -3 -1 -34 -6 -68 -11z"/>
<path d="M15593 1673 c-23 -8 -65 -34 -91 -58 -116 -105 -135 -301 -42 -428
110 -150 337 -165 461 -30 61 66 82 122 83 219 1 74 -2 87 -34 150 -38 75
-102 132 -170 153 -51 15 -156 13 -207 -6z m202 -176 c131 -131 -21 -349 -173
-249 -55 36 -77 132 -46 198 28 59 67 84 131 84 49 0 59 -4 88 -33z"/>
<path d="M16257 1676 c-135 -50 -204 -163 -195 -319 7 -127 61 -212 165 -263
46 -23 69 -28 133 -28 125 0 214 55 272 167 30 58 37 186 13 256 -20 61 -91
143 -149 173 -52 27 -183 35 -239 14z m179 -165 c97 -59 79 -233 -28 -276 -97
-39 -188 29 -188 140 0 55 18 93 60 129 39 32 109 36 156 7z"/>
<path d="M18012 1664 c-132 -66 -195 -239 -147 -401 19 -64 88 -143 153 -174
95 -47 240 -26 315 44 35 34 34 52 -8 109 l-35 48 -42 -30 c-33 -24 -51 -30
-93 -30 -84 0 -135 54 -135 145 0 137 111 200 221 125 24 -16 47 -30 51 -30
11 0 68 102 68 122 0 9 -15 28 -33 42 -82 62 -223 76 -315 30z"/>
<path d="M18579 1663 c-100 -260 -211 -575 -204 -581 9 -9 104 -14 139 -8 29
6 35 12 43 44 l9 37 101 3 102 3 7 -36 c8 -44 31 -55 112 -55 84 0 91 8 68 72
-38 108 -185 488 -201 517 -15 30 -17 31 -91 31 -72 0 -75 -1 -85 -27z m114
-256 c28 -87 25 -97 -28 -97 -30 0 -45 4 -45 13 0 22 41 137 49 137 4 0 15
-24 24 -53z"/>
<path d="M19095 1683 c-89 -8 -80 25 -79 -305 l1 -293 84 0 84 0 -1 153 c0 84
3 151 7 150 4 -2 58 -70 121 -153 108 -143 115 -150 153 -155 22 -3 57 -3 78
-1 l37 3 2 214 c1 118 3 251 3 297 l0 82 -85 0 -85 0 4 -159 c3 -116 1 -157
-8 -152 -6 4 -63 79 -127 167 -74 100 -123 158 -133 157 -9 -1 -34 -3 -56 -5z"/>
<path d="M20216 1398 c-59 -161 -106 -298 -106 -304 0 -15 33 -24 85 -24 68 0
84 9 97 51 l11 40 100 -3 101 -3 8 -30 c4 -16 15 -36 25 -42 20 -16 127 -17
153 -3 19 10 19 13 -6 83 -56 155 -185 483 -200 504 -13 20 -23 23 -88 23
l-73 0 -107 -292z m214 6 c28 -92 28 -94 -23 -94 -24 0 -46 3 -49 6 -6 5 40
154 48 154 2 0 12 -30 24 -66z"/>
<path d="M12445 1670 c-4 -7 -8 -141 -8 -299 l0 -286 59 -8 c83 -12 260 -1
316 18 62 22 140 105 163 176 37 109 4 259 -72 331 -61 58 -113 72 -289 76
-119 3 -164 1 -169 -8z m307 -147 c93 -55 97 -218 8 -285 -29 -21 -88 -33
-123 -24 -22 5 -24 12 -30 86 -4 44 -4 116 0 160 l6 80 54 0 c34 0 66 -7 85
-17z"/>
<path d="M13058 1388 c-2 -246 -1 -295 11 -305 16 -14 88 -17 138 -7 l29 6 1
299 0 299 -88 0 -88 0 -3 -292z"/>
<path d="M16750 1674 c-13 -4 -15 -46 -16 -299 l-2 -295 89 0 88 0 -6 100 -6
100 35 0 c44 0 48 -5 90 -110 l34 -85 87 -3 c69 -2 87 0 87 11 0 8 -22 59 -49
114 l-49 101 30 28 c45 43 60 81 61 149 1 96 -47 159 -142 185 -34 9 -299 12
-331 4z m279 -141 c12 -10 24 -34 27 -53 9 -53 -18 -81 -84 -88 -67 -6 -82 6
-82 67 0 84 5 91 65 91 35 0 60 -6 74 -17z"/>
<path d="M19677 1673 c-4 -3 -7 -136 -7 -295 0 -265 1 -289 18 -296 9 -4 103
-7 207 -7 l190 0 9 57 c13 90 16 88 -130 88 l-127 0 5 230 5 230 -82 0 c-45 0
-85 -3 -88 -7z"/>
<path d="M20758 1678 c0 -2 -2 -135 -3 -296 l-2 -294 26 -10 c44 -17 318 -5
369 16 108 46 145 187 71 271 l-30 33 27 39 c22 33 25 46 22 96 -4 46 -10 63
-33 87 -46 48 -105 60 -287 60 -87 0 -159 -1 -160 -2z m298 -139 c17 -14 18
-53 2 -67 -19 -15 -84 -25 -113 -18 -22 6 -25 12 -25 50 0 23 3 46 8 50 10 11
111 0 128 -15z m5 -229 c20 -11 26 -54 10 -79 -13 -21 -130 -28 -142 -10 -10
16 -12 83 -2 92 10 11 112 8 134 -3z"/>
</g>
</svg>
